# xmcd
#
# Track frame offsets: 
#        150
#        20232
#        36105
#        52755
#        69345
#        92035
#        103277
#        123367
#        138102
#        151440
#        170735
#        187177
#        206697
#
# Disc length: 2942 seconds
#
# Revision: 0
# Processed by: cddbd v1.5.2PL0 Copyright (c) Steve Scherf et al.
# Submitted via: ExactAudioCopy v0.99pb4
#
DISCID=b80b7c0d
DTITLE=Hobart Willis and the Back Forty - Full Amigo Flavor
DYEAR=2003
DGENRE=Country
TTITLE0=First Rose Of Spring
TTITLE1=Tell Me Another One
TTITLE2=Lonely Boy's Paradise
TTITLE3=The Heat Or The Holy Ghost
TTITLE4=Talk About True Love
TTITLE5=No Room To Cry
TTITLE6=Perfect
TTITLE7=Lavender Conquistador
TTITLE8=Breakfast At Juanita's
TTITLE9=Dont' Hold Me Up
TTITLE10=Walking Kentuckian
TTITLE11=King Of Broken Promises
TTITLE12=Back Forty Boogie
EXTD=
EXTT0=
EXTT1=
EXTT2=
EXTT3=
EXTT4=
EXTT5=
EXTT6=
EXTT7=
EXTT8=
EXTT9=
EXTT10=
EXTT11=
EXTT12=
PLAYORDER=
